<svg xmlns="http://www.w3.org/2000/svg" viewBox="0 0 64 64">
  <style>
    .line {
      fill: none;
      stroke: #F0C96F;
      stroke-linecap: round;
      stroke-linejoin: round;
    }
    .gold { fill: #F0C96F; }
  </style>
  <circle cx="32" cy="32" r="28.75" fill="#080B10"/>
  <circle class="line" cx="32" cy="32" r="29" stroke-width="3.5"/>
  <path class="gold" d="M32 7l1.35 3.65L37 12l-3.65 1.35L32 17l-1.35-3.65L27 12l3.65-1.35z"/>
  <path class="line" d="M15 21c5.2-2.4 28.8-2.4 34 0l-2.8 13.5C45 40 39.7 43 32 43s-13-3-14.2-8.5z" stroke-width="3.2"/>
  <path class="line" d="M15 21c5.2 2.8 28.8 2.8 34 0M32 43v9M23.5 55.5c4.6-2.8 12.4-2.8 17 0" stroke-width="3.2"/>
</svg>
